<?xml version="1.0" encoding="UTF-8"?>
<svg viewBox="86 0 30 41" xmlns="http://www.w3.org/2000/svg">
  <defs>
    <style id="style1011">.cls-1,.cls-2{fill:#27509b;fill-rule:evenodd}.cls-2{fill:#fff}</style>
    <style id="style1100">
            .cls-2{fill:#e95954}.cls-8{fill:#ea5e59}.cls-23{fill:#fdfdfd}
      </style>
    <style id="style10794">
            .cls-2{fill:#e95954}.cls-8{fill:#ea5e59}.cls-23{fill:#fdfdfd}
      </style>
  </defs>
  <g id="selected" transform="matrix(1, 0, 0, 1, 43.781029, 37.694939)">
    <g id="g7103">
      <path style="fill:#339d09;fill-opacity:1;stroke-width:1.96191418" d="m 57.218937,-37.694942 c -8.284272,0 -15,6.715728 -15,15 0,8.284272 15,26 15,26 0,0 15,-17.715728 15,-26 0,-8.284272 -6.715728,-15 -15,-15 z m 0,4.5 a 10.5,10.5 0 0 1 10.5,10.5 10.5,10.5 0 0 1 -10.5,10.5 10.5,10.5 0 0 1 -10.5,-10.5 10.5,10.5 0 0 1 10.5,-10.5 z" id="path588-5-0"/>
      <path style="fill:#ffffff;fill-opacity:1;stroke-width:1.37334049" d="m 67.718938,-22.694943 a 10.5,10.5 0 0 1 -10.5,10.5 10.5,10.5 0 0 1 -10.5,-10.5 10.5,10.5 0 0 1 10.5,-10.5 10.5,10.5 0 0 1 10.5,10.5 z" id="path588-9-63"/>
    </g>
    <path style="fill:#339d09;fill-opacity:1;stroke-width:0.0560836" d="m 51.502583,-18.459802 -3.47991,-3.459801 1.166312,-1.167305 1.166312,-1.167305 2.355692,2.355694 2.355694,2.355694 4.30451,-4.304237 4.304508,-4.304237 1.150781,1.150781 1.150779,1.150779 -5.431704,5.42487 c -2.987438,2.983676 -5.461261,5.424868 -5.497384,5.424868 -0.03612,0 -1.631639,-1.55691 -3.54559,-3.459801 z" id="path4983-2"/>
  </g>
</svg>